<svg xmlns="http://www.w3.org/2000/svg" viewBox="0 -0.5 44 44" shape-rendering="crispEdges">
<metadata>Made with Pixels to Svg https://codepen.io/shshaw/pen/XbxvNj</metadata>
<path stroke="#000000" d="M24 1h2M23 2h1M26 2h1M22 3h1M25 3h1M21 4h1M24 4h1M21 5h1M23 5h1M20 6h1M23 6h1M20 7h1M23 7h1M19 8h2M23 8h1M19 9h1M24 9h1M16 10h4M24 10h4M12 11h4M19 11h1M24 11h1M28 11h4M9 12h3M15 12h1M19 12h1M24 12h1M32 12h3M8 13h1M16 13h1M19 13h1M24 13h1M27 13h1M35 13h1M7 14h1M36 14h1M6 15h1M37 15h1M5 16h1M38 16h1M4 17h1M39 17h1M3 18h1M40 18h1M3 19h1M40 19h1M2 20h1M41 20h1M2 21h1M41 21h1M2 22h1M41 22h1M2 23h1M41 23h1M2 24h1M41 24h1M2 25h1M41 25h1M2 26h1M41 26h1M2 27h1M41 27h1M2 28h1M41 28h1M2 29h1M41 29h1M2 30h1M41 30h1M2 31h1M41 31h1M2 32h1M41 32h1M3 33h1M40 33h1M3 34h1M40 34h1M4 35h1M39 35h1M5 36h1M38 36h1M37 37h1M7 38h2M35 38h2M9 39h3M32 39h3M12 40h3M29 40h3M15 41h3M26 41h3M18 42h8" />
<path stroke="#3d664b" d="M24 2h1M23 4h1M21 6h1M22 7h1M22 8h1M20 9h1M22 9h1M20 10h1M20 11h1M22 11h1M20 12h1M22 12h1M20 13h1M22 13h2M20 14h4M21 15h2" />
<path stroke="#a1c495" d="M25 2h1M23 3h2M22 4h1" />
<path stroke="#55a271" d="M22 5h1M22 6h1M21 7h1M21 8h1M21 9h1M23 9h1M21 10h3M21 11h1M23 11h1M21 12h1M23 12h1M21 13h1" />
<path stroke="#783542" d="M16 11h2M12 12h3M17 12h1M10 13h2M15 13h1M12 14h1" />
<path stroke="#4b2830" d="M18 11h1M25 11h1M16 12h1M18 12h1M27 12h2M9 13h1M12 13h3M17 13h2M25 13h2M29 13h3M34 13h1M13 14h7M24 14h6M11 15h3M17 15h4M23 15h4M31 15h2M10 16h1M18 16h8M33 16h1M9 17h1M17 17h2M25 17h2M34 17h1M16 18h1M27 18h1M19 19h2M9 20h2M16 20h2M19 20h1M28 20h6M9 21h1M11 21h1M15 21h1M19 21h1M27 21h1M34 21h1M9 22h1M12 22h1M14 22h1M27 22h1M29 22h1M32 22h1M9 23h1M27 23h1M33 23h1M9 24h1M11 24h1M15 24h1M27 24h1M33 24h1M9 25h1M12 25h1M14 25h1M27 25h1M33 25h1M9 26h1M13 26h1M20 26h2M27 26h1M33 26h1M9 27h1M20 27h1M22 27h1M27 27h1M33 27h1M9 28h1M20 28h1M22 28h1M27 28h1M33 28h1M9 29h1M20 29h1M27 29h1M33 29h1M9 30h1M20 30h2M27 30h1M33 30h1M6 31h1M9 31h1M27 31h1M33 31h1M6 32h1M9 32h1M27 32h1M29 32h1M32 32h1M37 32h1M6 33h1M9 33h1M20 33h1M27 33h1M34 33h1M37 33h1M4 34h1M6 34h1M9 34h1M20 34h4M28 34h6M37 34h1M5 35h2M9 35h2M16 35h2M36 35h2M6 36h1M35 36h1M37 36h1M6 37h2M9 37h1M14 37h1M29 37h1M34 37h3M9 38h1M14 38h1M29 38h1M33 38h2M12 39h3M28 39h2M31 39h1M15 40h2M27 40h2M18 41h2M24 41h2" />
<path stroke="#7b3544" d="M26 11h2M25 12h2M29 12h3M28 13h1M32 13h2M8 14h2M30 14h2M34 14h2M14 15h3M27 15h3M15 16h3M26 16h5M16 17h1M19 17h6M27 17h1M8 18h1M17 18h3M24 18h3M35 18h1M7 19h1M16 19h2M27 19h1M36 19h1M15 20h1M37 20h1M6 21h1M37 21h1M6 22h1M6 23h1" />
<path stroke="#a94945" d="M10 14h2M32 14h2M7 15h4M30 15h1M33 15h4M6 16h4M11 16h4M31 16h2M34 16h4M7 17h2M10 17h6M28 17h4M35 17h2M7 18h1M9 18h1M14 18h2M20 18h4M28 18h2M6 19h1M8 19h1M15 19h1M18 19h1M21 19h6M28 19h4M5 20h3M18 20h1M25 20h3M5 21h1M7 21h1M5 22h1M7 22h1M37 22h1M5 23h1M7 23h1M37 23h1M5 24h1M7 24h1M37 24h1M5 25h1M15 25h1M37 25h1M5 26h1M15 26h1M37 26h1M3 27h1M5 27h1M15 27h1M37 27h1M3 28h3M15 28h1M3 29h3M15 29h1M38 29h1M3 30h3M15 30h1M38 30h1M4 31h1M15 31h1M38 31h1M40 31h1M7 32h1M15 32h1M38 32h1M40 32h1M7 33h2M15 33h1M39 33h1M7 34h2M15 34h1M39 34h1M7 35h2M15 35h1M35 35h1M8 36h6M15 36h3M28 36h1M30 36h2M34 36h1M36 36h1M10 37h4M15 37h4M28 37h1M30 37h4M11 38h3M15 38h5M27 38h1M31 38h1M15 39h6M25 39h1M20 40h4" />
<path stroke="#d18245" d="M5 17h2M32 17h2M37 17h2M4 18h3M10 18h4M30 18h5M36 18h4M4 19h2M9 19h6M32 19h1M35 19h1M37 19h2M3 20h2M8 20h1M13 20h2M21 20h4M36 20h1M38 20h1M3 21h2M8 21h1M13 21h2M18 21h1M21 21h6M36 21h1M38 21h1M3 22h2M8 22h1M13 22h1M18 22h2M25 22h2M30 22h1M3 23h2M18 23h1M26 23h1M30 23h1M3 24h2M18 24h1M26 24h1M30 24h1M3 25h2M7 25h1M18 25h1M30 25h1M3 26h2M7 26h2M12 26h1M18 26h1M30 26h1M38 26h1M4 27h1M7 27h2M12 27h2M18 27h1M30 27h1M38 27h1M7 28h2M12 28h2M18 28h2M30 28h2M36 28h1M38 28h1M40 28h1M7 29h2M13 29h1M18 29h2M30 29h2M36 29h1M39 29h2M7 30h2M13 30h1M18 30h2M30 30h3M36 30h1M39 30h2M7 31h2M13 31h1M18 31h2M30 31h3M36 31h1M39 31h1M8 32h1M13 32h1M18 32h1M30 32h2M36 32h1M39 32h1M13 33h1M18 33h1M36 33h1M11 34h3M18 34h1M27 34h1M34 34h2M11 35h3M27 35h2M30 35h5M18 36h2M27 36h1M32 36h2M19 37h3M26 37h2M20 38h2M25 38h2M21 39h4" />
<path stroke="#dbaa69" d="M33 19h2M39 19h1M11 20h2M34 20h2M39 20h2M12 21h1M35 21h1M39 21h2M20 22h5M31 22h1M35 22h2M38 22h3M8 23h1M19 23h7M31 23h2M35 23h2M38 23h3M8 24h1M19 24h7M31 24h2M35 24h2M38 24h3M8 25h1M11 25h1M19 25h8M31 25h2M35 25h2M38 25h3M11 26h1M19 26h1M24 26h3M31 26h2M35 26h2M39 26h2M11 27h1M19 27h1M21 27h1M24 27h3M31 27h2M35 27h2M39 27h2M11 28h1M21 28h1M24 28h3M32 28h1M35 28h1M39 28h1M11 29h2M21 29h6M32 29h1M35 29h1M11 30h2M24 30h3M35 30h1M11 31h2M20 31h3M24 31h3M35 31h1M11 32h2M19 32h1M22 32h1M24 32h3M35 32h1M11 33h2M19 33h1M22 33h1M24 33h3M35 33h1M19 34h1M24 34h3M18 35h9M20 36h7M22 37h4M22 38h3" />
<path stroke="#060606" d="M20 20h1M10 21h1M16 21h2M20 21h1M28 21h6M10 22h2M15 22h3M28 22h1M33 22h2M10 23h8M28 23h1M34 23h1M10 24h1M12 24h3M16 24h2M28 24h1M34 24h1M10 25h1M13 25h1M16 25h2M28 25h1M34 25h1M10 26h1M16 26h2M22 26h2M28 26h1M34 26h1M10 27h1M16 27h2M23 27h1M28 27h1M34 27h1M10 28h1M16 28h2M23 28h1M28 28h1M34 28h1M10 29h1M16 29h2M28 29h1M34 29h1M10 30h1M16 30h2M22 30h2M28 30h1M34 30h1M10 31h1M16 31h2M23 31h1M28 31h1M34 31h1M10 32h1M16 32h2M20 32h2M23 32h1M28 32h1M33 32h2M10 33h1M16 33h2M21 33h1M23 33h1M28 33h6M10 34h1M16 34h2" />
<path stroke="#7d3946" d="M29 23h1M6 24h1M29 24h1M6 25h1M29 25h1M6 26h1M14 26h1M29 26h1M6 27h1M14 27h1M29 27h1M6 28h1M14 28h1M29 28h1M37 28h1M6 29h1M14 29h1M29 29h1M37 29h1M6 30h1M14 30h1M29 30h1M37 30h1M3 31h1M5 31h1M14 31h1M29 31h1M37 31h1M3 32h3M14 32h1M4 33h2M14 33h1M38 33h1M5 34h1M14 34h1M38 34h1M14 35h1M29 35h1M38 35h1M7 36h1M14 36h1M29 36h1M8 37h1M10 38h1M28 38h1M30 38h1M32 38h1M26 39h2M30 39h1M17 40h3M24 40h3M20 41h4" />
<path stroke="#a94640" d="M36 34h1" />
</svg>