<svg xmlns="http://www.w3.org/2000/svg" viewBox="0 -0.5 50 50" shape-rendering="crispEdges">
<metadata>Made with Pixels to Svg https://codepen.io/shshaw/pen/XbxvNj</metadata>
<path stroke="#000000" d="M26 2h3M24 3h2M29 3h2M22 4h2M31 4h2M21 5h1M33 5h1M20 6h1M34 6h1M19 7h1M35 7h1M18 8h1M35 8h1M17 9h1M36 9h1M16 10h1M25 10h1M36 10h1M15 11h1M22 11h3M37 11h1M15 12h1M19 12h3M37 12h1M14 13h1M17 13h3M37 13h1M14 14h3M19 14h1M37 14h1M19 15h1M37 15h1M19 16h1M37 16h1M19 17h1M37 17h1M19 18h1M37 18h1M19 19h1M37 19h1M19 20h1M37 20h1M39 20h3M19 21h1M38 21h1M42 21h1M18 22h1M43 22h1M18 23h1M43 23h1M17 24h1M43 24h1M17 25h1M43 25h1M16 26h1M42 26h1M16 27h1M42 27h1M15 28h1M42 28h1M14 29h1M41 29h1M13 30h1M41 30h1M12 31h1M41 31h1M10 32h2M36 32h1M40 32h1M8 33h2M35 33h1M37 33h1M40 33h1M7 34h1M35 34h1M37 34h1M39 34h1M6 35h1M35 35h1M37 35h2M6 36h1M12 36h2M35 36h1M6 37h7M35 37h1M11 38h1M34 38h1M10 39h1M34 39h1M9 40h1M34 40h1M8 41h1M17 41h2M28 41h1M34 41h1M8 42h1M14 42h3M18 42h1M28 42h1M33 42h1M8 43h3M14 43h1M18 43h1M27 43h2M33 43h1M11 44h3M19 44h1M26 44h1M28 44h1M32 44h1M19 45h1M25 45h1M29 45h1M32 45h1M19 46h1M23 46h2M30 46h2M19 47h1M22 47h1M20 48h2" />
<path stroke="#859cac" d="M26 3h3M24 4h2M29 4h2M22 5h3M31 5h2M21 6h5M29 6h4M20 7h7M28 7h7M19 8h16M18 9h1M20 9h15M17 10h1M21 10h4M26 10h10M16 11h1M19 11h3M27 11h9M16 12h3M26 12h11M15 13h2M23 13h14M23 14h14M23 15h14M23 16h14M23 17h14M23 18h14M23 19h14M22 20h15M22 21h15M40 21h2M22 22h15M39 22h4M22 23h15M39 23h4M21 24h17M39 24h3M21 25h16M40 25h1M21 26h15M20 27h16M19 28h17M18 29h18M17 30h19M15 31h21M14 32h21M14 33h20M16 34h18M17 35h17M17 36h16M17 37h6M24 37h9M16 38h4M24 38h5M30 38h3M14 39h5M23 39h5M30 39h2M13 40h2M23 40h5M30 40h2M22 41h4M30 41h2M22 42h3M31 42h1M22 43h3M22 44h2" />
<path stroke="#bacecd" d="M26 4h3M25 5h6M26 6h3M27 7h1M19 9h1M18 10h3M17 11h2" />
<path stroke="#515f7e" d="M33 6h1M35 9h1M25 11h2M36 11h1M22 12h4M20 13h3M20 14h3M20 15h3M20 16h3M20 17h3M20 18h3M20 19h3M20 20h2M20 21h2M39 21h1M19 22h3M38 22h1M19 23h3M37 23h2M18 24h3M38 24h1M42 24h1M18 25h3M37 25h3M41 25h2M17 26h4M36 26h1M38 26h4M17 27h3M36 27h1M38 27h4M16 28h3M36 28h1M38 28h4M15 29h3M36 29h1M38 29h3M14 30h3M37 30h4M13 31h2M37 31h4M12 32h2M35 32h1M37 32h3M10 33h4M34 33h1M38 33h2M8 34h8M34 34h1M38 34h1M7 35h8M16 35h1M34 35h1M7 36h2M15 36h2M33 36h2M13 37h4M33 37h2M12 38h4M29 38h1M33 38h1M11 39h3M19 39h1M21 39h2M29 39h1M32 39h2M10 40h3M15 40h3M20 40h1M29 40h1M32 40h2M9 41h8M19 41h3M26 41h1M29 41h1M32 41h2M9 42h5M19 42h3M25 42h2M29 42h2M32 42h1M11 43h3M19 43h3M25 43h2M29 43h4M20 44h2M24 44h2M29 44h3M20 45h5M30 45h2M20 46h3M20 47h2" />
<path stroke="#272834" d="M37 21h1M37 22h1M37 26h1M37 27h1M37 28h1M37 29h1M36 30h1M36 31h1M15 35h1M14 36h1M20 39h1M28 39h1M18 40h2M28 40h1M27 41h1M27 42h1" />
<path stroke="#515f7c" d="M9 36h3M23 37h1M20 38h4M21 40h2" />
</svg>