<svg xmlns="http://www.w3.org/2000/svg" viewBox="0 -0.5 50 75" shape-rendering="crispEdges">
<metadata>Made with Pixels to Svg https://codepen.io/shshaw/pen/XbxvNj</metadata>
<path stroke="#000000" d="M27 2h2M26 3h1M29 3h1M25 4h1M28 4h1M24 5h1M27 5h1M24 6h1M26 6h1M23 7h1M26 7h1M23 8h1M26 8h1M22 9h2M26 9h1M22 10h1M27 10h1M19 11h4M27 11h4M15 12h4M22 12h1M27 12h1M31 12h4M12 13h3M18 13h1M22 13h1M27 13h1M35 13h3M11 14h1M19 14h1M22 14h1M27 14h1M30 14h1M38 14h1M10 15h1M39 15h1M9 16h1M40 16h1M8 17h1M41 17h1M7 18h1M42 18h1M6 19h1M43 19h1M6 20h1M43 20h1M5 21h1M44 21h1M5 22h1M44 22h1M5 23h1M44 23h1M5 24h1M44 24h1M5 25h1M14 25h2M34 25h2M44 25h1M5 26h1M14 26h3M33 26h3M44 26h1M5 27h1M14 27h4M32 27h4M44 27h1M5 28h1M15 28h4M31 28h4M44 28h1M5 29h1M16 29h4M30 29h4M44 29h1M5 30h1M24 30h2M44 30h1M5 31h1M24 31h3M44 31h1M5 32h1M13 32h2M35 32h2M44 32h1M5 33h1M13 33h3M34 33h3M44 33h1M6 34h1M14 34h2M18 34h2M23 34h3M29 34h2M34 34h2M43 34h1M6 35h1M15 35h5M23 35h3M29 35h6M43 35h1M7 36h1M16 36h2M21 36h8M32 36h2M42 36h1M8 37h1M21 37h8M41 37h1M9 38h1M40 38h1M10 39h2M38 39h2M12 40h3M35 40h3M15 41h3M32 41h3M13 42h2M18 42h3M29 42h3M35 42h2M8 43h5M21 43h8M37 43h6M7 44h1M43 44h1M7 45h1M13 45h3M43 45h1M8 46h5M15 46h1M37 46h6M14 47h2M37 47h1M13 48h1M37 48h1M12 49h1M16 49h2M35 49h2M38 49h2M12 50h1M14 50h1M18 50h1M34 50h1M36 50h1M39 50h1M11 51h1M13 51h2M18 51h1M34 51h1M36 51h2M40 51h1M9 52h2M12 52h2M18 52h1M33 52h1M38 52h1M41 52h1M5 53h8M14 53h5M33 53h1M39 53h5M4 54h3M9 54h1M16 54h1M34 54h1M41 54h2M44 54h1M3 55h1M5 55h1M9 55h1M16 55h1M34 55h1M40 55h1M43 55h1M45 55h1M3 56h1M5 56h1M8 56h1M17 56h1M34 56h1M40 56h1M43 56h1M6 57h1M17 57h1M34 57h1M40 57h1M43 57h1M17 58h1M35 58h1M17 59h1M35 59h1M17 60h1M24 60h2M34 60h1M15 61h3M24 61h2M34 61h1M18 62h1M21 62h3M26 62h1M29 62h5M18 63h1M21 63h1M26 63h1M29 63h1M18 64h1M21 64h1M26 64h1M29 64h1M18 65h1M21 65h1M26 65h1M29 65h1M18 66h1M21 66h1M26 66h1M29 66h1M18 67h2M21 67h1M26 67h1M28 67h2M20 68h2M26 68h2M20 69h2M26 69h2M20 70h2M26 70h2M20 71h2M26 71h2M20 72h2M26 72h2M20 73h2M26 73h2" />
<path stroke="#3d664b" d="M27 3h1M26 5h1M24 7h1M25 8h1M25 9h1M23 10h1M25 10h1M23 11h1M23 12h1M25 12h1M23 13h1M25 13h1M23 14h1M25 14h2M23 15h4M24 16h2" />
<path stroke="#a1c495" d="M28 3h1M26 4h2M25 5h1" />
<path stroke="#55a271" d="M25 6h1M25 7h1M24 8h1M24 9h1M24 10h1M26 10h1M24 11h3M24 12h1M26 12h1M24 13h1M26 13h1M24 14h1" />
<path stroke="#783542" d="M19 12h2M15 13h3M20 13h1M13 14h2M18 14h1M15 15h1" />
<path stroke="#4b2830" d="M21 12h1M28 12h1M19 13h1M21 13h1M30 13h2M12 14h1M15 14h3M20 14h2M28 14h2M32 14h3M37 14h1M16 15h7M27 15h6M14 16h3M20 16h4M26 16h4M34 16h2M13 17h1M21 17h8M36 17h1M12 18h1M20 18h2M28 18h2M37 18h1M19 19h1M30 19h1M13 24h2M17 24h1M32 24h1M35 24h1M17 25h1M32 25h1M24 29h2M17 30h1M12 31h1M23 31h1M37 31h1M9 32h1M12 32h1M15 32h1M34 32h1M37 32h1M9 33h1M12 33h1M37 33h1M40 33h1M9 34h1M20 34h1M26 34h1M31 34h1M36 34h1M40 34h1M7 35h1M9 35h1M14 35h1M20 35h1M26 35h1M35 35h1M40 35h1M8 36h2M15 36h1M20 36h1M29 36h1M34 36h1M39 36h2M9 37h1M20 37h1M29 37h1M38 37h1M40 37h1M10 38h1M12 38h1M37 38h3M12 39h1M32 39h1M36 39h2M15 40h3M31 40h2M34 40h1M18 41h2M30 41h2M21 42h2M27 42h2" />
<path stroke="#7b3544" d="M29 12h2M28 13h2M32 13h3M31 14h1M35 14h2M11 15h2M33 15h2M37 15h2M17 16h3M30 16h3M18 17h3M29 17h5M19 18h1M22 18h6M30 18h1M11 19h1M20 19h3M27 19h3M38 19h1M10 20h1M19 20h2M30 20h1M39 20h1M18 21h1M31 21h1M40 21h1M9 22h1M40 22h1M9 23h1M17 23h1M32 23h1M9 24h1" />
<path stroke="#a94945" d="M13 15h2M35 15h2M10 16h4M33 16h1M36 16h4M9 17h4M14 17h4M34 17h2M37 17h4M10 18h2M13 18h6M31 18h4M38 18h2M10 19h1M12 19h1M17 19h2M23 19h4M31 19h2M9 20h1M11 20h1M18 20h1M21 20h9M31 20h2M8 21h3M19 21h4M28 21h3M8 22h1M10 22h1M18 22h3M30 22h2M8 23h1M10 23h1M18 23h2M30 23h2M40 23h1M8 24h1M10 24h1M18 24h1M30 24h2M40 24h1M8 25h1M10 25h1M18 25h1M31 25h1M40 25h1M8 26h1M18 26h1M40 26h1M8 27h1M40 27h1M6 28h1M8 28h1M40 28h1M6 29h3M6 30h3M18 30h1M37 30h1M41 30h1M6 31h3M13 31h1M36 31h1M41 31h1M7 32h1M32 32h1M41 32h1M43 32h1M10 33h1M16 33h2M32 33h2M41 33h1M43 33h1M10 34h2M16 34h2M32 34h2M42 34h1M10 35h2M13 35h1M42 35h1M10 36h5M18 36h2M38 36h1M11 37h6M18 37h2M33 37h2M37 37h1M39 37h1M13 38h4M18 38h5M33 38h4M14 39h3M18 39h5M30 39h1M34 39h1M18 40h6M28 40h1M23 41h4" />
<path stroke="#d18245" d="M8 18h2M35 18h2M40 18h2M7 19h3M13 19h4M33 19h5M39 19h2M7 20h2M12 20h6M33 20h3M38 20h1M40 20h1M6 21h2M11 21h3M16 21h2M23 21h5M32 21h3M39 21h1M6 22h2M11 22h2M16 22h2M21 22h9M32 22h4M6 23h2M11 23h1M16 23h1M20 23h3M28 23h2M33 23h1M6 24h2M19 24h3M29 24h1M6 25h2M19 25h3M30 25h1M6 26h2M10 26h1M19 26h3M30 26h2M6 27h2M10 27h2M19 27h3M30 27h1M41 27h1M7 28h1M10 28h2M20 28h2M41 28h1M10 29h2M20 29h3M34 29h1M41 29h1M43 29h1M10 30h2M16 30h1M19 30h4M30 30h2M33 30h1M42 30h2M10 31h2M16 31h1M18 31h5M31 31h1M33 31h3M42 31h2M10 32h2M16 32h1M18 32h6M31 32h1M33 32h1M42 32h1M11 33h1M18 33h6M31 33h1M39 33h1M42 33h1M12 34h1M21 34h2M39 34h1M12 35h1M21 35h2M36 35h1M38 35h1M30 36h2M35 36h3M30 37h2M35 37h2M23 38h2M29 38h3M23 39h2M28 39h2M24 40h4" />
<path stroke="#dbaa69" d="M41 19h2M36 20h2M41 20h2M14 21h2M35 21h4M41 21h3M13 22h3M36 22h4M41 22h3M12 23h4M23 23h5M34 23h6M41 23h3M11 24h2M15 24h2M22 24h7M33 24h2M37 24h3M41 24h3M11 25h2M22 25h8M37 25h3M41 25h3M11 26h2M22 26h8M37 26h3M41 26h3M12 27h1M22 27h8M37 27h3M42 27h2M12 28h2M22 28h8M36 28h4M42 28h2M12 29h4M23 29h1M26 29h4M35 29h5M42 29h1M12 30h4M23 30h1M26 30h4M34 30h3M38 30h2M14 31h2M27 31h4M38 31h2M24 32h7M38 32h2M24 33h7M38 33h1M27 34h2M37 34h2M27 35h2M37 35h1M25 38h4M25 39h3" />
<path stroke="#7d3946" d="M36 24h1M9 25h1M13 25h1M16 25h1M33 25h1M36 25h1M9 26h1M13 26h1M17 26h1M32 26h1M36 26h1M9 27h1M13 27h1M18 27h1M31 27h1M36 27h1M9 28h1M14 28h1M19 28h1M30 28h1M35 28h1M9 29h1M40 29h1M9 30h1M32 30h1M40 30h1M9 31h1M17 31h1M32 31h1M40 31h1M6 32h1M8 32h1M17 32h1M40 32h1M6 33h3M7 34h2M13 34h1M41 34h1M8 35h1M41 35h1M41 36h1M10 37h1M17 37h1M32 37h1M11 38h1M17 38h1M32 38h1M13 39h1M17 39h1M31 39h1M33 39h1M35 39h1M29 40h2M33 40h1M20 41h3M27 41h3M23 42h4" />
<path stroke="#a94640" d="M39 35h1" />
<path stroke="#625767" d="M15 42h1M13 43h3M8 44h2M13 44h1M37 44h2M8 45h2M37 45h2" />
<path stroke="#1a1a20" d="M16 42h2M16 43h4M31 43h2M18 44h2M31 44h4M24 45h2M32 45h5M22 46h6M34 46h3M22 47h6M15 48h3M26 48h6M14 49h1M26 49h6M13 50h1M19 50h5M32 50h2M19 51h5M32 51h2M23 52h10M23 53h10M19 54h2M27 54h7M19 55h2M27 55h7M18 56h7M32 56h2M18 57h7M32 57h2M20 58h11M21 59h10M26 60h2" />
<path stroke="#35333a" d="M32 42h3M29 43h2M35 43h2M22 44h2M26 44h5M35 44h2M18 45h2M22 45h2M29 45h2M18 46h2M18 47h2M32 49h3" />
<path stroke="#49464f" d="M20 43h1M33 43h2M10 44h3M14 44h2M20 44h2M24 44h2M39 44h4M10 45h3M20 45h2M27 45h2M39 45h4M29 46h3M30 47h2" />
<path stroke="#302939" d="M16 44h2M16 45h2M26 45h1M31 45h1M16 46h2M20 46h2M28 46h1M32 46h2M16 47h2M20 47h2M28 47h2M32 47h5M18 48h8M32 48h5M18 49h8M24 50h8M24 51h8M19 52h4M19 53h4M17 54h2M21 54h6M17 55h2M21 55h6M25 56h7M25 57h7M18 58h2M31 58h4M18 59h3M31 59h4M18 60h6M28 60h6M18 61h6M28 61h6" />
<path stroke="#15141f" d="M14 48h1M13 49h1M15 49h1M37 49h1M37 50h2M12 51h1M38 51h2M11 52h1M39 52h2M26 61h2M19 62h2M27 62h2M19 63h2M27 63h2M19 64h2M27 64h2M19 65h2M27 65h2M19 66h2M27 66h2M20 67h1M27 67h1" />
</svg>