<svg xmlns="http://www.w3.org/2000/svg" viewBox="0 -0.5 50 65" shape-rendering="crispEdges">
<metadata>Made with Pixels to Svg https://codepen.io/shshaw/pen/XbxvNj</metadata>
<path stroke="#000000" d="M20 3h1M19 4h1M21 4h1M23 4h6M19 5h1M22 5h1M29 5h2M18 6h3M31 6h1M17 7h1M32 7h1M16 8h1M33 8h1M16 9h1M33 9h1M15 10h1M33 10h1M15 11h1M34 11h1M15 12h1M34 12h1M15 13h1M34 13h1M15 14h1M34 14h1M16 15h1M34 15h1M16 16h2M34 16h1M16 17h1M33 17h1M15 18h1M33 18h1M14 19h1M30 19h1M33 19h1M15 20h2M19 20h1M24 20h1M30 20h1M33 20h1M17 21h2M23 21h1M29 21h1M31 21h1M33 21h1M19 22h1M21 22h2M28 22h1M30 22h1M32 22h1M19 23h2M27 23h4M18 24h1M21 24h3M26 24h2M31 24h1M17 25h1M24 25h1M26 25h1M30 25h1M32 25h1M17 26h1M25 26h2M32 26h1M17 27h1M32 27h1M16 28h1M18 28h1M31 28h1M33 28h1M16 29h1M19 29h1M30 29h1M33 29h1M15 30h1M20 30h3M27 30h3M34 30h1M15 31h1M23 31h4M34 31h1M15 32h1M34 32h1M14 33h1M17 33h1M32 33h1M35 33h1M14 34h1M17 34h1M32 34h1M35 34h1M14 35h1M17 35h1M32 35h1M35 35h1M13 36h1M17 36h1M32 36h1M36 36h1M13 37h1M17 37h1M32 37h1M36 37h1M12 38h1M16 38h1M33 38h1M37 38h1M12 39h1M16 39h1M33 39h1M37 39h1M11 40h1M16 40h1M33 40h1M38 40h1M11 41h1M16 41h1M33 41h1M38 41h1M11 42h1M16 42h2M32 42h2M38 42h1M12 43h7M31 43h7M11 44h2M16 44h4M30 44h4M37 44h2M11 45h1M13 45h5M20 45h3M27 45h3M32 45h5M38 45h1M11 46h1M16 46h2M23 46h4M32 46h2M38 46h1M11 47h2M16 47h1M33 47h1M37 47h2M12 48h5M22 48h6M33 48h5M16 49h1M24 49h2M33 49h1M15 50h1M17 50h1M23 50h4M32 50h1M34 50h1M15 51h1M17 51h1M23 51h4M32 51h1M34 51h1M15 52h1M18 52h5M24 52h2M27 52h5M34 52h1M15 53h1M24 53h2M34 53h1M16 54h1M24 54h2M33 54h1M16 55h2M23 55h1M26 55h1M32 55h2M16 56h1M18 56h6M26 56h6M33 56h1M16 57h1M23 57h1M26 57h1M33 57h1M17 58h1M23 58h1M26 58h1M32 58h1M18 59h5M27 59h5" />
<path stroke="#76533b" d="M20 4h1M21 5h1M23 5h6M21 6h10M19 7h1M21 7h9M31 7h1M18 8h3M22 8h7M30 8h2M18 9h4M29 9h3M17 10h15M17 11h15M17 12h15M18 13h9M28 13h4M18 14h5M24 14h4M29 14h2M19 15h3M24 15h4M29 15h1M23 16h4M22 17h4M21 18h4M15 19h1M32 20h1M32 21h1M25 25h1" />
<path stroke="#543d31" d="M20 5h1M18 7h1M17 8h1M32 8h1M17 9h1M32 9h1M16 10h1M32 10h1M16 11h1M32 11h2M16 12h1M32 12h2M16 13h2M27 13h1M32 13h2M16 14h2M23 14h1M28 14h1M31 14h3M17 15h2M22 15h2M28 15h1M30 15h4M18 16h5M27 16h7M17 17h5M26 17h7M16 18h5M25 18h8M16 19h14M31 19h2M17 20h2M20 20h4M25 20h5M31 20h1M19 21h4M24 21h5M30 21h1M20 22h1M23 22h5M29 22h1M21 23h6M24 24h2" />
<path stroke="#9e846e" d="M20 7h1M30 7h1M21 8h1M29 8h1M22 9h7" />
<path stroke="#c6cdcc" d="M19 24h2M28 24h3M20 25h4M27 25h3M22 26h3M27 26h1M20 27h2M28 27h2M22 28h6" />
<path stroke="#979797" d="M18 25h2M31 25h1M18 26h4M28 26h4M18 27h2M22 27h6M30 27h2M19 28h3M28 28h3M20 29h10M23 30h4" />
<path stroke="#43677b" d="M17 28h1M32 28h1M17 29h2M31 29h2M16 30h4M30 30h4M17 31h6M27 31h7M17 32h3M22 32h6M30 32h3M18 33h1M31 33h1M18 34h1M31 34h1M18 35h1M31 35h1M18 36h1M31 36h1M18 37h1M31 37h1M13 38h2M17 38h3M30 38h3M35 38h2M13 39h3M17 39h4M29 39h4M34 39h3M12 40h4M17 40h6M27 40h6M34 40h4M12 41h4M17 41h16M34 41h4M12 42h4M18 42h14M34 42h4M20 43h10M13 44h3M23 44h4M34 44h3" />
<path stroke="#62b4e5" d="M16 31h1M16 32h1M20 32h2M28 32h2M33 32h1M15 33h2M19 33h12M33 33h2M15 34h2M19 34h12M33 34h2M15 35h2M19 35h12M33 35h2M14 36h3M19 36h12M33 36h3M14 37h3M19 37h12M33 37h3M15 38h1M20 38h10M34 38h1M21 39h8M23 40h4M19 43h1M30 43h1M20 44h3M27 44h3M23 45h4" />
<path stroke="#e7af96" d="M12 45h1M37 45h1M13 46h1M36 46h1" />
<path stroke="#332e39" d="M18 45h2M30 45h2M18 46h1M31 46h1M17 47h2M30 47h3M17 48h3M28 48h5M17 49h7M26 49h7M18 50h5M27 50h5M18 51h5M27 51h5" />
<path stroke="#926e6e" d="M12 46h1M14 46h2M34 46h2M37 46h1M13 47h3M34 47h3" />
<path stroke="#43404b" d="M19 46h4M27 46h4M19 47h11M20 48h2" />
<path stroke="#5d5a62" d="M16 50h1M33 50h1M16 51h1M33 51h1M16 52h1M23 52h1M26 52h1M33 52h1M16 53h2M22 53h2M26 53h2M32 53h2M17 54h7M26 54h7M18 55h5M27 55h5" />
<path stroke="#818184" d="M17 52h1M32 52h1M18 53h4M28 53h4" />
<path stroke="#284656" d="M17 56h1M32 56h1M17 57h6M27 57h6M18 58h5M27 58h5" />
</svg>