<svg xmlns="http://www.w3.org/2000/svg" viewBox="0 -0.5 50 75" shape-rendering="crispEdges">
<metadata>Made with Pixels to Svg https://codepen.io/shshaw/pen/XbxvNj</metadata>
<path stroke="#000000" d="M21 2h2M20 3h1M23 3h1M21 4h1M24 4h1M22 5h1M25 5h1M23 6h1M25 6h1M23 7h1M26 7h1M23 8h1M26 8h1M23 9h1M26 9h2M22 10h1M27 10h1M19 11h4M27 11h4M15 12h4M22 12h1M27 12h1M31 12h4M12 13h3M22 13h1M27 13h1M31 13h1M35 13h3M11 14h1M19 14h1M22 14h1M27 14h1M30 14h1M38 14h1M10 15h1M39 15h1M9 16h1M40 16h1M8 17h1M41 17h1M7 18h1M42 18h1M6 19h1M43 19h1M6 20h1M43 20h1M5 21h1M44 21h1M5 22h1M44 22h1M5 23h1M44 23h1M5 24h1M44 24h1M5 25h1M44 25h1M5 26h1M44 26h1M5 27h1M44 27h1M5 28h1M44 28h1M5 29h1M44 29h1M5 30h1M44 30h1M5 31h1M44 31h1M5 32h1M44 32h1M5 33h1M44 33h1M6 34h1M43 34h1M6 35h1M43 35h1M7 36h1M42 36h1M8 37h1M41 37h1M9 38h1M10 39h2M38 39h2M12 40h3M35 40h3M15 41h3M32 41h3M13 42h2M18 42h3M29 42h3M35 42h2M7 43h6M21 43h8M37 43h5M6 44h1M42 44h1M6 45h1M34 45h3M42 45h1M7 46h6M34 46h1M37 46h5M12 47h1M34 47h2M12 48h1M36 48h1M10 49h2M13 49h2M32 49h2M37 49h1M10 50h1M13 50h1M15 50h1M31 50h1M35 50h1M37 50h1M9 51h1M12 51h2M15 51h1M31 51h1M35 51h2M38 51h1M8 52h1M11 52h1M16 52h1M31 52h1M36 52h2M39 52h2M6 53h5M16 53h1M31 53h5M37 53h8M5 54h1M7 54h2M15 54h1M33 54h1M40 54h1M43 54h3M4 55h1M6 55h1M9 55h1M15 55h1M33 55h1M40 55h1M44 55h1M46 55h1M6 56h1M9 56h1M15 56h1M32 56h1M41 56h1M44 56h1M46 56h1M6 57h1M9 57h1M15 57h1M32 57h1M43 57h1M14 58h1M32 58h1M14 59h1M32 59h1M15 60h1M24 60h2M32 60h1M15 61h1M24 61h2M32 61h3M16 62h5M23 62h1M26 62h3M31 62h1M20 63h1M23 63h1M28 63h1M31 63h1M20 64h1M23 64h1M28 64h1M31 64h1M20 65h1M23 65h1M28 65h1M31 65h1M20 66h1M23 66h1M28 66h1M31 66h1M20 67h2M23 67h1M28 67h1M30 67h2M22 68h2M28 68h2M22 69h2M28 69h2M22 70h2M28 70h2M22 71h2M28 71h2M22 72h2M28 72h2M22 73h2M28 73h2" />
<path stroke="#a1c495" d="M21 3h1M22 4h2M24 5h1" />
<path stroke="#3d664b" d="M22 3h1M23 5h1M25 7h1M24 8h1M24 9h1M24 10h1M26 10h1M26 11h1M24 12h1M26 12h1M24 13h1M26 13h1M23 14h2M26 14h1M23 15h4M24 16h2" />
<path stroke="#55a271" d="M24 6h1M24 7h1M25 8h1M25 9h1M23 10h1M25 10h1M23 11h3M23 12h1M25 12h1M23 13h1M25 13h1M25 14h1" />
<path stroke="#7b3544" d="M19 12h2M15 13h3M20 13h2M13 14h2M18 14h1M11 15h2M15 15h2M37 15h2M17 16h3M30 16h3M16 17h5M29 17h3M19 18h1M22 18h6M30 18h1M11 19h1M20 19h3M27 19h3M38 19h1M10 20h1M19 20h1M29 20h2M39 20h1M9 21h1M18 21h1M31 21h1M9 22h1M40 22h1M17 23h1M32 23h1M40 23h1M40 24h1" />
<path stroke="#4b2830" d="M21 12h1M28 12h1M18 13h2M28 13h1M30 13h1M12 14h1M15 14h3M20 14h2M28 14h2M32 14h3M37 14h1M17 15h6M27 15h7M14 16h2M20 16h4M26 16h4M33 16h3M13 17h1M21 17h8M36 17h1M12 18h1M20 18h2M28 18h2M37 18h1M19 19h1M30 19h1M17 24h1M32 24h1M32 25h1M32 26h1M32 27h1M32 28h1M32 29h1M17 31h1M17 32h1M40 32h1M9 33h1M17 33h1M40 33h1M9 34h1M17 34h1M40 34h1M9 35h1M40 35h1M42 35h1M9 36h2M40 36h2M9 37h1M11 37h1M40 37h1M10 38h3M17 38h1M32 38h1M37 38h1M39 38h2M12 39h2M17 39h1M32 39h1M37 39h1M15 40h1M17 40h2M32 40h3M18 41h2M30 41h2M21 42h2M27 42h2" />
<path stroke="#783542" d="M29 12h2M29 13h1M32 13h3M31 14h1M35 14h2M34 15h1" />
<path stroke="#a94945" d="M13 15h2M35 15h2M10 16h4M16 16h1M36 16h4M9 17h4M14 17h2M32 17h4M37 17h4M10 18h2M15 18h4M31 18h6M38 18h2M17 19h2M23 19h4M31 19h2M37 19h1M39 19h1M15 20h4M20 20h9M31 20h1M38 20h1M40 20h1M17 21h1M19 21h3M27 21h4M39 21h3M17 22h3M29 22h3M39 22h1M41 22h1M9 23h1M18 23h2M30 23h2M39 23h1M41 23h1M9 24h1M18 24h2M31 24h1M39 24h1M41 24h1M9 25h1M18 25h1M31 25h1M39 25h1M41 25h1M9 26h1M31 26h1M41 26h1M9 27h1M31 27h1M41 27h1M9 28h1M31 28h1M41 28h1M43 28h1M31 29h1M41 29h3M8 30h1M31 30h1M41 30h3M8 31h1M31 31h1M41 31h3M6 32h1M8 32h1M30 32h2M42 32h1M6 33h1M8 33h1M30 33h2M39 33h1M7 34h1M30 34h2M38 34h2M7 35h1M30 35h2M38 35h2M11 36h1M29 36h3M37 36h3M10 37h1M12 37h1M15 37h2M18 37h1M29 37h3M33 37h6M13 38h4M18 38h1M28 38h4M33 38h4M15 39h1M19 39h1M27 39h5M33 39h3M21 40h1M26 40h6M23 41h4" />
<path stroke="#d18245" d="M8 18h2M13 18h2M40 18h2M7 19h4M12 19h5M33 19h4M40 19h3M8 20h2M11 20h1M14 20h1M32 20h6M41 20h2M8 21h1M10 21h1M15 21h2M22 21h5M32 21h2M36 21h3M42 21h2M8 22h1M10 22h1M15 22h2M20 22h9M32 22h2M37 22h2M42 22h2M16 23h1M20 23h2M27 23h3M33 23h1M38 23h1M42 23h2M16 24h1M20 24h1M28 24h3M33 24h1M42 24h2M16 25h1M19 25h2M28 25h3M33 25h1M42 25h2M16 26h1M18 26h2M28 26h3M33 26h1M39 26h1M42 26h2M8 27h1M16 27h1M18 27h2M28 27h3M33 27h2M38 27h2M42 27h2M8 28h1M16 28h1M18 28h2M28 28h3M33 28h2M38 28h2M42 28h1M6 29h1M8 29h1M10 29h1M15 29h2M18 29h2M27 29h4M33 29h2M38 29h2M6 30h2M10 30h1M15 30h2M18 30h2M27 30h4M33 30h1M38 30h2M6 31h2M10 31h1M14 31h3M18 31h1M27 31h4M33 31h1M38 31h2M7 32h1M10 32h1M14 32h3M18 32h1M27 32h3M33 32h1M38 32h2M7 33h1M10 33h1M15 33h2M18 33h1M28 33h2M33 33h1M38 33h1M10 34h1M15 34h2M18 34h1M28 34h2M33 34h1M37 34h1M11 35h1M13 35h1M15 35h2M18 35h1M28 35h2M33 35h5M12 36h5M18 36h2M33 36h4M13 37h2M19 37h1M27 37h2M19 38h2M25 38h3M20 39h2M25 39h2M22 40h4" />
<path stroke="#dbaa69" d="M7 20h1M12 20h2M6 21h2M11 21h4M34 21h2M6 22h2M11 22h4M34 22h3M6 23h3M10 23h6M22 23h5M34 23h4M6 24h3M10 24h6M21 24h7M34 24h5M6 25h3M10 25h6M21 25h7M34 25h5M6 26h3M10 26h6M20 26h8M34 26h5M6 27h2M10 27h6M20 27h8M35 27h3M6 28h2M10 28h6M20 28h8M35 28h3M7 29h1M11 29h4M20 29h7M35 29h3M11 30h4M20 30h7M34 30h4M11 31h3M19 31h8M34 31h4M11 32h3M19 32h8M34 32h4M11 33h4M19 33h9M34 33h4M11 34h4M19 34h9M34 34h3M12 35h1M14 35h1M19 35h9M20 36h9M20 37h7M21 38h4M22 39h3" />
<path stroke="#7d3946" d="M17 25h1M40 25h1M17 26h1M40 26h1M17 27h1M40 27h1M17 28h1M40 28h1M9 29h1M17 29h1M40 29h1M9 30h1M17 30h1M32 30h1M40 30h1M9 31h1M32 31h1M40 31h1M9 32h1M32 32h1M41 32h1M43 32h1M32 33h1M41 33h3M8 34h1M32 34h1M41 34h2M8 35h1M17 35h1M32 35h1M41 35h1M8 36h1M17 36h1M32 36h1M17 37h1M32 37h1M39 37h1M38 38h1M14 39h1M16 39h1M18 39h1M36 39h1M16 40h1M19 40h2M20 41h3M27 41h3M23 42h4" />
<path stroke="#a94640" d="M10 35h1" />
<path stroke="#35333a" d="M15 42h3M13 43h2M19 43h2M13 44h2M19 44h5M26 44h2M19 45h2M26 45h2M30 45h2M30 46h2M30 47h2M15 49h3" />
<path stroke="#1a1a20" d="M32 42h2M17 43h2M30 43h4M15 44h4M30 44h2M13 45h5M24 45h2M13 46h3M22 46h6M22 47h6M18 48h6M32 48h3M18 49h6M35 49h1M16 50h2M26 50h5M36 50h1M16 51h2M26 51h5M17 52h10M17 53h10M16 54h7M29 54h2M16 55h7M29 55h2M16 56h2M25 56h7M16 57h2M25 57h7M19 58h11M19 59h10M22 60h2" />
<path stroke="#625767" d="M34 42h1M34 43h3M11 44h2M36 44h1M40 44h2M11 45h2M40 45h2" />
<path stroke="#49464f" d="M15 43h2M29 43h1M7 44h4M24 44h2M28 44h2M34 44h2M37 44h3M7 45h4M21 45h2M28 45h2M37 45h3M18 46h3M18 47h2" />
<path stroke="#302939" d="M32 44h2M18 45h1M23 45h1M32 45h2M16 46h2M21 46h1M28 46h2M32 46h2M13 47h5M20 47h2M28 47h2M32 47h2M13 48h5M24 48h8M24 49h8M18 50h8M18 51h8M27 52h4M27 53h4M23 54h6M31 54h2M23 55h6M31 55h2M18 56h7M18 57h7M15 58h4M30 58h2M15 59h4M29 59h3M16 60h6M26 60h6M16 61h6M26 61h6" />
<path stroke="#15141f" d="M35 48h1M12 49h1M34 49h1M36 49h1M11 50h2M10 51h2M37 51h1M9 52h2M38 52h1M22 61h2M21 62h2M29 62h2M21 63h2M29 63h2M21 64h2M29 64h2M21 65h2M29 65h2M21 66h2M29 66h2M22 67h1M29 67h1" />
</svg>