<svg xmlns="http://www.w3.org/2000/svg" viewBox="0 -0.5 50 50" shape-rendering="crispEdges">
<metadata>Made with Pixels to Svg https://codepen.io/shshaw/pen/XbxvNj</metadata>
<path stroke="#000000" d="M21 2h3M19 3h2M24 3h2M17 4h2M26 4h2M16 5h1M28 5h1M15 6h1M29 6h1M14 7h1M30 7h1M14 8h1M31 8h1M13 9h1M17 9h1M23 9h1M32 9h1M13 10h1M16 10h3M22 10h3M33 10h1M12 11h1M16 11h3M22 11h3M30 11h1M34 11h1M12 12h1M15 12h4M22 12h4M30 12h1M34 12h1M12 13h1M16 13h2M23 13h2M30 13h3M35 13h1M12 14h1M30 14h1M33 14h3M12 15h1M30 15h1M12 16h1M30 16h1M12 17h1M18 17h1M20 17h1M30 17h1M12 18h1M18 18h3M30 18h1M12 19h1M16 19h3M20 19h2M30 19h1M8 20h3M12 20h1M16 20h2M21 20h1M30 20h1M7 21h1M11 21h1M30 21h1M6 22h1M31 22h1M6 23h1M31 23h1M6 24h1M32 24h1M6 25h1M32 25h1M7 26h1M33 26h1M7 27h1M33 27h1M7 28h1M34 28h1M8 29h1M35 29h1M8 30h1M36 30h1M8 31h1M37 31h1M9 32h1M13 32h1M38 32h2M9 33h1M12 33h1M14 33h1M40 33h2M10 34h1M12 34h1M14 34h1M42 34h1M11 35h2M14 35h1M43 35h1M14 36h1M36 36h2M43 36h1M14 37h1M37 37h7M15 38h1M38 38h1M15 39h1M39 39h1M15 40h1M40 40h1M15 41h1M21 41h1M31 41h2M41 41h1M16 42h1M21 42h1M31 42h1M33 42h3M41 42h1M16 43h1M21 43h2M31 43h1M35 43h1M39 43h3M17 44h1M21 44h1M23 44h1M30 44h1M36 44h3M17 45h1M20 45h1M24 45h1M30 45h1M18 46h2M25 46h2M30 46h1M27 47h1M30 47h1M28 48h2" />
<path stroke="#859cac" d="M21 3h3M19 4h2M24 4h1M17 5h2M23 5h5M17 6h1M22 6h7M15 7h5M21 7h5M29 7h1M15 8h2M19 8h1M21 8h1M24 8h3M15 9h1M19 9h1M21 9h1M25 9h2M31 9h1M14 10h1M19 10h3M26 10h1M32 10h1M14 11h1M19 11h3M26 11h1M32 11h2M14 12h1M19 12h3M26 12h1M14 13h1M19 13h3M26 13h1M14 14h2M18 14h5M25 14h2M14 15h13M14 16h4M19 16h1M21 16h6M14 17h3M22 17h5M14 18h3M23 18h3M14 19h2M23 19h3M14 20h2M19 20h1M24 20h1M8 21h2M14 21h2M17 21h4M7 22h1M10 22h1M14 22h2M17 22h5M25 22h3M7 23h1M10 23h1M14 23h9M24 23h1M28 23h2M7 24h1M9 24h2M14 24h9M24 24h1M27 24h3M7 25h3M14 25h9M24 25h1M26 25h4M8 26h1M14 26h9M24 26h1M26 26h3M8 27h2M14 27h9M24 27h4M8 28h2M14 28h9M25 28h2M9 29h2M14 29h9M26 29h2M9 30h2M14 30h9M26 30h2M10 31h1M14 31h10M27 31h1M34 31h1M10 32h1M15 32h9M35 32h3M16 33h9M31 33h1M37 33h2M16 34h9M31 34h1M38 34h2M16 35h11M31 35h2M17 36h12M30 36h3M17 37h9M27 37h6M17 38h3M21 38h5M30 38h4M18 39h2M22 39h5M31 39h5M18 40h2M22 40h5M35 40h3M18 41h2M23 41h5M36 41h2M18 42h1M23 42h5M24 43h5M26 44h3M28 45h1" />
<path stroke="#bacecd" d="M21 4h3M19 5h4M18 6h4M20 7h1M20 8h1M20 9h1M8 22h2M8 23h2M25 23h3M8 24h1M25 24h2M25 25h1M25 26h1" />
<path stroke="#515f7e" d="M25 4h1M16 6h1M26 7h3M18 8h1M22 8h1M27 8h4M14 9h1M16 9h1M18 9h1M22 9h1M24 9h1M27 9h4M15 10h1M25 10h1M27 10h5M13 11h1M15 11h1M25 11h1M27 11h3M31 11h1M13 12h1M27 12h3M31 12h3M13 13h1M15 13h1M25 13h1M27 13h3M33 13h2M13 14h1M16 14h2M23 14h2M27 14h3M13 15h1M27 15h3M13 16h1M27 16h3M13 17h1M27 17h3M13 18h1M22 18h1M26 18h4M13 19h1M19 19h1M26 19h4M13 20h1M18 20h1M20 20h1M23 20h1M25 20h5M10 21h1M13 21h1M21 21h4M28 21h2M11 22h1M13 22h1M16 22h1M22 22h2M29 22h2M11 23h3M30 23h1M11 24h3M30 24h2M10 25h4M30 25h2M9 26h3M13 26h1M29 26h4M10 27h2M13 27h1M28 27h5M10 28h2M13 28h1M23 28h1M27 28h7M11 29h1M13 29h1M23 29h1M25 29h1M28 29h2M31 29h4M11 30h2M23 30h2M28 30h2M31 30h5M9 31h1M11 31h2M24 31h1M26 31h1M28 31h1M30 31h4M35 31h2M11 32h2M14 32h1M24 32h2M27 32h2M30 32h5M10 33h2M15 33h1M25 33h2M28 33h1M30 33h1M32 33h5M39 33h1M11 34h1M15 34h1M25 34h2M28 34h1M30 34h1M32 34h6M40 34h2M15 35h1M27 35h1M29 35h2M33 35h1M35 35h8M15 36h2M29 36h1M33 36h2M41 36h2M15 37h2M33 37h4M16 38h1M20 38h1M34 38h4M16 39h2M20 39h1M27 39h2M30 39h1M36 39h3M16 40h2M20 40h1M29 40h1M32 40h3M38 40h2M16 41h2M20 41h1M28 41h3M33 41h3M38 41h3M17 42h1M19 42h2M28 42h3M36 42h5M17 43h4M23 43h1M29 43h2M36 43h3M18 44h3M24 44h2M29 44h1M18 45h2M25 45h3M29 45h1M27 46h3M28 47h2" />
<path stroke="#272834" d="M17 8h1M23 8h1M18 13h1M22 13h1M18 16h1M20 16h1M17 17h1M19 17h1M21 17h1M17 18h1M21 18h1M22 19h1M22 20h1M12 21h1M16 21h1M25 21h3M12 22h1M24 22h1M28 22h1M23 23h1M23 24h1M23 25h1M12 26h1M23 26h1M12 27h1M23 27h1M12 28h1M24 28h1M12 29h1M24 29h1M30 29h1M13 30h1M25 30h1M30 30h1M13 31h1M25 31h1M29 31h1M26 32h1M29 32h1M27 33h1M29 33h1M27 34h1M29 34h1M28 35h1M34 35h1M35 36h1M21 39h1M29 39h1M21 40h1M30 40h2M22 41h1M22 42h1" />
<path stroke="#515f7c" d="M38 36h3M26 37h1M26 38h4M27 40h2" />
</svg>