<svg xmlns="http://www.w3.org/2000/svg" viewBox="0 -0.5 50 65" shape-rendering="crispEdges">
<metadata>Made with Pixels to Svg https://codepen.io/shshaw/pen/XbxvNj</metadata>
<path stroke="#000000" d="M22 3h4M20 4h2M26 4h2M19 5h1M28 5h1M18 6h1M20 6h8M29 6h1M18 7h2M28 7h2M18 8h1M20 8h8M29 8h1M17 9h3M28 9h3M16 10h1M23 10h2M28 10h1M31 10h1M16 11h1M21 11h2M28 11h1M31 11h1M16 12h1M20 12h1M28 12h1M31 12h1M15 13h1M20 13h1M28 13h1M32 13h1M15 14h1M19 14h1M27 14h1M31 14h1M33 14h1M15 15h1M19 15h1M26 15h1M28 15h1M32 15h3M15 16h1M19 16h1M25 16h1M29 16h1M32 16h1M16 17h1M19 17h1M23 17h2M29 17h1M32 17h1M17 18h1M19 18h1M21 18h2M27 18h3M32 18h1M17 19h1M19 19h2M30 19h1M32 19h1M17 20h1M19 20h1M30 20h1M32 20h1M18 21h2M30 21h2M19 22h1M29 22h2M19 23h2M29 23h2M18 24h4M27 24h3M31 24h1M17 25h1M19 25h5M26 25h4M31 25h1M17 26h1M20 26h3M27 26h2M32 26h1M17 27h1M21 27h1M28 27h1M32 27h1M16 28h1M18 28h1M22 28h1M27 28h1M31 28h1M33 28h1M16 29h1M18 29h1M22 29h2M26 29h2M31 29h1M33 29h1M15 30h1M19 30h2M22 30h1M24 30h2M27 30h1M29 30h2M34 30h1M15 31h1M21 31h2M27 31h2M34 31h1M15 32h1M22 32h1M27 32h1M34 32h1M14 33h1M17 33h1M22 33h1M27 33h1M32 33h1M35 33h1M14 34h1M17 34h1M22 34h1M27 34h1M32 34h1M35 34h1M14 35h1M17 35h1M22 35h1M27 35h1M32 35h1M35 35h1M13 36h1M17 36h1M22 36h1M27 36h1M32 36h1M36 36h1M13 37h1M17 37h1M22 37h1M27 37h1M32 37h1M36 37h1M12 38h1M16 38h1M22 38h1M27 38h1M33 38h1M37 38h1M12 39h1M16 39h1M22 39h1M27 39h1M33 39h1M37 39h1M11 40h1M16 40h1M22 40h1M27 40h1M33 40h1M38 40h1M11 41h1M16 41h1M22 41h1M27 41h1M33 41h1M38 41h1M11 42h1M16 42h1M22 42h1M27 42h1M33 42h1M38 42h1M12 43h6M22 43h1M27 43h1M32 43h6M11 44h2M16 44h4M22 44h6M30 44h4M37 44h2M11 45h1M13 45h5M20 45h3M27 45h3M32 45h5M38 45h1M11 46h1M14 46h1M16 46h1M32 46h2M35 46h1M38 46h1M11 47h1M14 47h1M16 47h1M22 47h1M27 47h1M32 47h2M35 47h1M38 47h1M12 48h1M14 48h4M23 48h4M32 48h4M37 48h1M13 49h4M24 49h2M33 49h4M15 50h1M17 50h1M23 50h4M32 50h1M34 50h1M15 51h1M18 51h14M34 51h1M15 52h1M20 52h1M24 52h2M29 52h1M34 52h1M15 53h1M20 53h1M24 53h2M29 53h1M34 53h1M16 54h1M20 54h1M24 54h2M29 54h1M33 54h1M16 55h2M19 55h1M23 55h1M26 55h1M30 55h1M32 55h2M16 56h1M18 56h6M26 56h6M33 56h1M16 57h2M21 57h3M26 57h3M32 57h2M16 58h1M23 58h1M26 58h1M33 58h1M16 59h1M22 59h1M27 59h1M33 59h1M17 60h1M21 60h1M28 60h1M32 60h1M18 61h3M29 61h3" />
<path stroke="#543d31" d="M22 4h4M20 5h8M19 6h1M28 6h1M20 9h8M17 10h6M29 10h2M17 11h4M29 11h2M17 12h1M19 12h1M30 12h1M19 13h1M31 13h1M18 14h1M26 14h1M28 14h1M32 14h1M18 15h1M25 15h1M29 15h1M31 15h1M18 16h1M23 16h2M31 16h1M18 17h1M21 17h2M31 17h1M18 18h1M20 18h1M30 18h2M18 19h1M31 19h1M18 20h1M31 20h1" />
<path stroke="#58447a" d="M20 7h8M19 8h1M28 8h1M23 30h1M26 30h1M24 31h2M23 38h4M23 39h4M23 40h4M23 41h4M23 42h4M23 43h4" />
<path stroke="#76533b" d="M25 10h3M23 11h5M18 12h1M21 12h7M29 12h1M16 13h3M21 13h7M29 13h2M16 14h2M20 14h6M29 14h2M16 15h2M20 15h5M30 15h1M16 16h2M20 16h3M30 16h1M17 17h1M20 17h1M30 17h1" />
<path stroke="#926e6e" d="M27 15h1M26 16h1M28 16h1M25 17h1M23 18h2M29 19h1M20 20h1M29 20h1M20 21h1M29 21h1M20 22h1M21 23h1M28 23h1M22 24h1M24 25h2M23 26h4M22 27h6M23 28h4M24 29h2M13 44h1M15 44h1M34 44h1M36 44h1M12 45h1M37 45h1M12 46h1M37 46h1M12 47h2M15 47h1M34 47h1M36 47h2M13 48h1M36 48h1" />
<path stroke="#e7af96" d="M27 16h1M26 17h3M25 18h2M23 19h4M23 20h4M21 21h3M25 21h4M21 22h8M22 23h2M26 23h2M23 24h4M14 44h1M35 44h1M13 46h1M15 46h1M34 46h1M36 46h1" />
<path stroke="#e7e8e7" d="M21 19h1M28 19h1M21 20h1M28 20h1" />
<path stroke="#00625d" d="M22 19h1M27 19h1M22 20h1M27 20h1" />
<path stroke="#9c686f" d="M24 21h1M24 23h2" />
<path stroke="#979797" d="M30 24h1M18 25h1M30 25h1M18 26h2M30 26h2M18 27h2M30 27h2M19 28h1M30 28h1M19 29h2M29 29h2M21 30h1M28 30h1" />
<path stroke="#c6cdcc" d="M29 26h1M20 27h1M29 27h1M20 28h2M28 28h2M21 29h1M28 29h1" />
<path stroke="#43677b" d="M17 28h1M32 28h1M17 29h1M32 29h1M16 30h3M31 30h3M16 31h5M29 31h5M16 32h6M28 32h2M31 32h3M15 33h1M18 33h1M20 33h2M28 33h1M31 33h1M34 33h1M15 34h1M18 34h1M21 34h1M28 34h1M31 34h1M34 34h1M15 35h1M18 35h1M31 35h1M34 35h1M14 36h1M35 36h1M14 37h1M16 37h1M33 37h1M35 37h1M13 38h2M17 38h2M31 38h2M35 38h2M13 39h3M17 39h2M31 39h2M34 39h3M12 40h1M15 40h1M17 40h3M21 40h1M28 40h1M30 40h3M34 40h1M37 40h1M12 41h1M17 41h5M28 41h5M37 41h1M12 42h4M17 42h5M28 42h5M34 42h4M20 43h2M28 43h2M31 43h1" />
<path stroke="#8777a1" d="M23 31h1M26 31h1M23 32h4M23 33h4M23 34h4M23 35h4M23 36h4" />
<path stroke="#62b4e5" d="M30 32h1M16 33h1M19 33h1M29 33h2M33 33h1M16 34h1M19 34h2M29 34h2M33 34h1M16 35h1M19 35h3M28 35h3M33 35h1M15 36h2M18 36h4M28 36h4M33 36h2M15 37h1M18 37h4M28 37h4M34 37h1M15 38h1M19 38h3M28 38h3M34 38h1M19 39h3M28 39h3M13 40h2M20 40h1M29 40h1M35 40h2M13 41h3M34 41h3M18 43h2M30 43h1M20 44h2M28 44h2" />
<path stroke="#675682" d="M23 37h4" />
<path stroke="#332e39" d="M18 45h2M30 45h2M17 46h2M31 46h1M17 47h2M23 47h4M31 47h1M18 48h1M22 48h1M27 48h1M31 48h1M17 49h1M21 49h3M26 49h3M31 49h2M18 50h5M27 50h5" />
<path stroke="#43404b" d="M23 45h4M19 46h12M19 47h3M28 47h3M19 48h3M28 48h3M18 49h3M29 49h2" />
<path stroke="#5d5a62" d="M16 50h1M33 50h1M16 51h2M32 51h2M16 52h2M22 52h2M26 52h2M32 52h2M16 53h4M21 53h3M26 53h3M30 53h4M17 54h3M21 54h3M26 54h3M30 54h3M18 55h1M20 55h3M27 55h3M31 55h1" />
<path stroke="#818184" d="M18 52h2M21 52h1M28 52h1M30 52h2" />
<path stroke="#284656" d="M17 56h1M32 56h1M18 57h3M29 57h3" />
<path stroke="#747988" d="M17 58h1M22 58h1M27 58h1M32 58h1M17 59h1M21 59h1M28 59h1M32 59h1M18 60h3M29 60h3" />
<path stroke="#c1c1ce" d="M18 58h4M28 58h4M18 59h3M29 59h3" />
</svg>